<mxfile host="app.diagrams.net" modified="2022-02-27T22:21:52.939Z" agent="5.0 (Windows NT 10.0; Win64; x64) AppleWebKit/537.36 (KHTML, like Gecko) Chrome/98.0.4758.102 Safari/537.36" etag="uJboTglXz-lWGdMAxste" version="16.6.4" type="github">
  <diagram id="HRUNRSSaRLd2qoj43QYg" name="Page-1">
    <mxGraphModel dx="1822" dy="762" grid="0" gridSize="10" guides="1" tooltips="1" connect="1" arrows="1" fold="1" page="0" pageScale="1" pageWidth="827" pageHeight="1169" math="0" shadow="0">
      <root>
        <mxCell id="0" />
        <mxCell id="1" parent="0" />
        <mxCell id="HNIL2XNpq1nPoykBcbi_-1" value="User" style="rounded=0;whiteSpace=wrap;html=1;verticalAlign=top;" parent="1" vertex="1">
          <mxGeometry x="-275" y="308" width="204" height="107" as="geometry" />
        </mxCell>
        <mxCell id="HNIL2XNpq1nPoykBcbi_-2" value="Movie" style="rounded=0;whiteSpace=wrap;html=1;" parent="1" vertex="1">
          <mxGeometry x="257" y="328" width="432" height="104" as="geometry" />
        </mxCell>
        <mxCell id="HNIL2XNpq1nPoykBcbi_-5" value="Director" style="rounded=0;whiteSpace=wrap;html=1;" parent="1" vertex="1">
          <mxGeometry x="184" y="652" width="480" height="120" as="geometry" />
        </mxCell>
        <mxCell id="HNIL2XNpq1nPoykBcbi_-14" value="has many" style="rounded=0;whiteSpace=wrap;html=1;strokeColor=#482BFF;fillColor=#482BFF;fontColor=#F2F2F2;" parent="1" vertex="1">
          <mxGeometry x="-354" y="730" width="120" height="60" as="geometry" />
        </mxCell>
        <mxCell id="HNIL2XNpq1nPoykBcbi_-23" value="has one" style="rounded=0;whiteSpace=wrap;html=1;strokeColor=#B8240D;fillColor=#B8240D;fontColor=#F2F2F2;" parent="1" vertex="1">
          <mxGeometry x="-354" y="649" width="120" height="60" as="geometry" />
        </mxCell>
        <mxCell id="HNIL2XNpq1nPoykBcbi_-24" value="belongs to" style="rounded=0;whiteSpace=wrap;html=1;strokeColor=#1FB824;fillColor=#1FB824;fontColor=#F2F2F2;" parent="1" vertex="1">
          <mxGeometry x="-354" y="575" width="120" height="59" as="geometry" />
        </mxCell>
        <mxCell id="HNIL2XNpq1nPoykBcbi_-26" style="edgeStyle=orthogonalEdgeStyle;rounded=0;orthogonalLoop=1;jettySize=auto;html=1;exitX=0.5;exitY=0;exitDx=0;exitDy=0;fontColor=#F2F2F2;strokeColor=#482BFF;" parent="1" source="HNIL2XNpq1nPoykBcbi_-19" target="HNIL2XNpq1nPoykBcbi_-2" edge="1">
          <mxGeometry relative="1" as="geometry" />
        </mxCell>
        <mxCell id="HNIL2XNpq1nPoykBcbi_-65" style="edgeStyle=orthogonalEdgeStyle;rounded=0;orthogonalLoop=1;jettySize=auto;html=1;fontColor=#F2F2F2;strokeColor=#B8240D;" parent="1" source="HNIL2XNpq1nPoykBcbi_-64" target="HNIL2XNpq1nPoykBcbi_-5" edge="1">
          <mxGeometry relative="1" as="geometry" />
        </mxCell>
        <mxCell id="HNIL2XNpq1nPoykBcbi_-64" value="director" style="rounded=1;whiteSpace=wrap;html=1;" parent="1" vertex="1">
          <mxGeometry x="381" y="390" width="86" height="34" as="geometry" />
        </mxCell>
        <mxCell id="HNIL2XNpq1nPoykBcbi_-19" value="movie" style="rounded=1;whiteSpace=wrap;html=1;" parent="1" vertex="1">
          <mxGeometry x="-195" y="341" width="86" height="34" as="geometry" />
        </mxCell>
      </root>
    </mxGraphModel>
  </diagram>
</mxfile>
